<svg width="316" height="46" xmlns="http://www.w3.org/2000/svg">
 <!-- Created with Method Draw - http://github.com/duopixel/Method-Draw/ -->

 <g>
  <title>background</title>
  <rect fill="#fff" id="canvas_background" height="48" width="318" y="-1" x="-1"/>
  <g display="none" overflow="visible" y="0" x="0" height="100%" width="100%" id="canvasGrid">
   <rect fill="url(#gridpattern)" stroke-width="0" y="0" x="0" height="100%" width="100%"/>
  </g>
 </g>
 <g>
  <title>Layer 1</title>
  <g stroke="null" id="svg_7">
   <g stroke="#000" transform="matrix(0.4046201041691139,0,0,0.4046201041691139,-2294.6313297135057,-1675.2340553707181) " fill="#000" stroke-width="0.25mm" font-size="9pt" fill-rule="evenodd" stroke-linecap="round" id="svg_4">
    <path stroke="null" id="svg_6" d="m6349.244487,4161.92355l15.5,0l-22.9,70l-17.4,0l-15.4,-47.4l-15.9,47.4l-17.3,0l-23,-70l16.8,0l15.8,49.2l16.5,-49.2l15,0l16,49.6l16.3,-49.6zm74.2,0l16,0l0,70l-13.3,0l-34.9,-42.5l0,42.5l-16,0l0,-70l13.4,0l34.8,42.5l0,-42.5zm-357.6,70l-22.4,-27.5l-9.4,9.8l0,17.7l-16.1,0l0,-70l16.1,0l0,32.7l31,-32.7l18,0l-29,31.2l30.7,38.8l-18.9,0zm-58.8,-58.8l-10.4,9.6a24.073,24.073 0 0 0 -7.386,-5.877a22.434,22.434 0 0 0 -10.214,-2.323q-6.5,0 -11.6,2.85q-5.1,2.85 -7.95,7.95a22.496,22.496 0 0 0 -2.714,8.823a27.717,27.717 0 0 0 -0.136,2.777q0,6.5 2.85,11.6q2.85,5.1 7.95,7.95a22.496,22.496 0 0 0 8.823,2.714a27.717,27.717 0 0 0 2.777,0.136a22.012,22.012 0 0 0 16.47,-7.054a28.649,28.649 0 0 0 1.13,-1.246l10.4,9.6q-5,6.1 -12.4,9.3q-7.4,3.2 -16.5,3.2q-10.7,0 -19.35,-4.65q-8.65,-4.65 -13.6,-12.9a34.983,34.983 0 0 1 -4.891,-16.401a42.286,42.286 0 0 1 -0.059,-2.249q0,-10.4 4.95,-18.65q4.95,-8.25 13.6,-12.9a39.233,39.233 0 0 1 15.476,-4.487a47.549,47.549 0 0 1 3.974,-0.163q9.1,0 16.45,3.2q7.35,3.2 12.35,9.2zm84.9,58.8l0,-70l31.8,0q11.4,0 20.15,4.35a33.27,33.27 0 0 1 10.748,8.304a32.104,32.104 0 0 1 2.852,3.946q4.85,7.9 4.85,18.4q0,10.5 -4.85,18.4q-4.85,7.9 -13.6,12.25a41.232,41.232 0 0 1 -12.626,3.836a53.292,53.292 0 0 1 -7.524,0.514l-31.8,0zm-292.1,0l0,-70l16.2,0l0,56.8l35.1,0l0,13.2l-51.3,0zm82.114,-0.457a43.559,43.559 0 0 0 12.186,1.657a47.88,47.88 0 0 0 4.01,-0.165a39.352,39.352 0 0 0 15.59,-4.535q8.7,-4.7 13.7,-12.95q5,-8.25 5,-18.55a41.666,41.666 0 0 0 -0.02,-1.28a34.795,34.795 0 0 0 -4.98,-17.27q-5,-8.25 -13.7,-12.95a37.807,37.807 0 0 0 -7.469,-3.054a43.391,43.391 0 0 0 -12.131,-1.646a48.147,48.147 0 0 0 -3.683,0.139a39.772,39.772 0 0 0 -15.967,4.561q-8.75,4.7 -13.7,12.95a34.021,34.021 0 0 0 -2.818,5.914a36.775,36.775 0 0 0 -2.132,12.636a41.898,41.898 0 0 0 0.03,1.597a34.986,34.986 0 0 0 4.92,16.953q4.95,8.25 13.7,12.95a38.226,38.226 0 0 0 7.464,3.043zm314.3,0a43.559,43.559 0 0 0 12.186,1.657a47.88,47.88 0 0 0 4.01,-0.165a39.352,39.352 0 0 0 15.59,-4.535q8.7,-4.7 13.7,-12.95q5,-8.25 5,-18.55a41.666,41.666 0 0 0 -0.02,-1.28a34.795,34.795 0 0 0 -4.98,-17.27q-5,-8.25 -13.7,-12.95a37.807,37.807 0 0 0 -7.469,-3.054a43.391,43.391 0 0 0 -12.131,-1.646a48.147,48.147 0 0 0 -3.683,0.139a39.772,39.772 0 0 0 -15.967,4.561q-8.75,4.7 -13.7,12.95a34.021,34.021 0 0 0 -2.818,5.914a36.775,36.775 0 0 0 -2.132,12.636a41.898,41.898 0 0 0 0.03,1.597a34.986,34.986 0 0 0 4.92,16.953q4.95,8.25 13.7,12.95a38.226,38.226 0 0 0 7.464,3.043zm-88.114,-12.843l14.8,0q10.5,0 16.75,-5.85q6.25,-5.85 6.25,-15.85a25.797,25.797 0 0 0 -0.879,-6.915a18.923,18.923 0 0 0 -5.371,-8.935a21.055,21.055 0 0 0 -10.033,-5.159a30.905,30.905 0 0 0 -6.717,-0.691l-14.8,0l0,43.4zm-214,0.7a23.205,23.205 0 0 0 7.536,-1.198a21.185,21.185 0 0 0 3.664,-1.652q5,-2.85 7.85,-7.95a22.496,22.496 0 0 0 2.714,-8.823a27.717,27.717 0 0 0 0.136,-2.777q0,-6.5 -2.85,-11.6q-2.85,-5.1 -7.85,-7.95a21.915,21.915 0 0 0 -10.001,-2.823a26.241,26.241 0 0 0 -1.199,-0.027a23.205,23.205 0 0 0 -7.536,1.198a21.185,21.185 0 0 0 -3.664,1.652q-5,2.85 -7.85,7.95a22.496,22.496 0 0 0 -2.714,8.823a27.717,27.717 0 0 0 -0.136,2.777q0,6.5 2.85,11.6q2.85,5.1 7.85,7.95a21.915,21.915 0 0 0 10.001,2.823a26.241,26.241 0 0 0 1.199,0.027zm314.3,0a23.205,23.205 0 0 0 7.536,-1.198a21.185,21.185 0 0 0 3.664,-1.652q5,-2.85 7.85,-7.95a22.496,22.496 0 0 0 2.714,-8.823a27.717,27.717 0 0 0 0.136,-2.777q0,-6.5 -2.85,-11.6q-2.85,-5.1 -7.85,-7.95a21.915,21.915 0 0 0 -10.001,-2.823a26.241,26.241 0 0 0 -1.199,-0.027a23.205,23.205 0 0 0 -7.536,1.198a21.185,21.185 0 0 0 -3.664,1.652q-5,2.85 -7.85,7.95a22.496,22.496 0 0 0 -2.714,8.823a27.717,27.717 0 0 0 -0.136,2.777q0,6.5 2.85,11.6q2.85,5.1 7.85,7.95a21.915,21.915 0 0 0 10.001,2.823a26.241,26.241 0 0 0 1.199,0.027z"/>
   </g>
  </g>
  <g stroke="null" id="svg_17">
   <g stroke="null" transform="matrix(0.12159253629363294,0,0,0.12159253629363294,41.68647124589643,39.52563877112516) " id="svg_12">
    <path stroke="null" id="svg_13" d="m-198.914089,-220.173304c-68.4,0 -124.1,55.7 -124.1,124.1s55.7,124.1 124.1,124.1s124.1,-55.7 124.1,-124.1s-55.6,-124.1 -124.1,-124.1zm108.2,116.3l-56.4,0c-0.8,-27.3 -5.4,-52.8 -13.3,-72.5c-4.3,-10.8 -9.5,-19.3 -15.2,-25.5c46.1,10 81.4,49.6 84.9,98zm-108.2,109.5c-8.1,0 -17,-10.2 -23.8,-27.2c-7.2,-17.9 -11.5,-41.4 -12.2,-66.7l72.1,0c-0.7,25.3 -5,48.7 -12.2,66.7c-6.9,17.1 -15.8,27.2 -23.9,27.2zm-36,-109.5c0.7,-25.3 5,-48.7 12.2,-66.7c6.8,-17 15.7,-27.2 23.8,-27.2s17,10.2 23.8,27.2c7.2,17.9 11.5,41.4 12.2,66.7l-72,0zm12.9,-98.1c-5.7,6.2 -10.9,14.8 -15.2,25.5c-7.9,19.7 -12.6,45.2 -13.3,72.5l-56.5,0c3.5,-48.3 38.8,-87.9 85,-98zm-85,113.8l56.4,0c0.8,27.3 5.4,52.8 13.3,72.5c4.3,10.8 9.5,19.3 15.2,25.5c-46.1,-10.1 -81.4,-49.7 -84.9,-98zm131.3,98c5.7,-6.2 10.9,-14.8 15.2,-25.5c7.9,-19.7 12.6,-45.2 13.3,-72.5l56.4,0c-3.4,48.3 -38.7,87.9 -84.9,98z"/>
   </g>
   <g stroke="null" transform="matrix(0.12159253629363294,0,0,0.12159253629363294,41.68647124589643,39.52563877112516) " id="svg_14">
    <g stroke="null" id="svg_15">
     <path stroke="null" id="svg_16" d="m-122.714089,-190.873304c-1.3,20.1 -1.6,2.5 -1.6,1.6l0.6,-59.9c0,-30.8 -25,-55.7 -55.7,-55.7l-39.7,0c-30.8,0 -55.7,25 -55.7,55.7l0.1,62.3c0,0.4 1.2,-2.2 0.9,-2.2l0,0c-0.4,0 -0.7,0.4 -0.6,0.8c1.3,6.7 -0.4,-2.3 -0.4,3.2c0,0 0,-1.9 0,-3c0,-0.5 0.4,-0.9 -0.7,-1.9l21.8,0c0.3,-1.6 2.4,-0.9 1.9,-1.6c-6.2,-8.9 2.3,-8.2 3.3,-13.8c0.1,-0.4 -2.1,0 -2.4,0l-3.3,1.6c0.2,0 0,-0.8 -0.1,-7l0,-38.4c0,-19.6 15.9,-35.4 35.4,-35.4l39.6,0c19.6,0 35.4,15.9 35.4,35.4l0,38.2c0.2,4.6 -0.5,5.4 -1.4,5.4l0,-1.6c-1.4,3.1 -1.8,-1.5 -1.7,-0.6c0.4,5.6 0.1,15 1.7,9.5c1.5,-5.1 1.6,4.1 2.4,4.1l18.8,5.1c0.9,0 1.6,-0.7 1.5,-1.6c-0.2,-5.8 -0.7,6.4 0,0.6"/>
    </g>
   </g>
  </g>
 </g>
</svg>